# File exported by Houdini 16.5.268 (www.sidefx.com)
# 20 points
# 72 vertices
# 18 primitives
# Bounds: [-0.888387024, 0.135608003, -2.98257899] to [0.960817993, 7.75452709, -2.27424002]
g 
v -0.197214007 0.135608003 -2.27424002
v 0.269645005 0.135608003 -2.27424002
v -0.862308025 7.75452709 -2.7405951
v 0.934738994 7.75452709 -2.7405951
v -0.862308025 7.75452709 -2.98257899
v 0.934738994 7.75452709 -2.98257899
v -0.197214007 0.135608003 -2.51622391
v 0.269645005 0.135608003 -2.51622391
v 0.269645005 4.94326591 -2.27424002
v -0.197214007 4.94326591 -2.27424002
v -0.197214007 4.94326591 -2.51622391
v 0.269645005 4.94326591 -2.51622391
v 0.499931008 5.26710796 -2.7405951
v -0.42750001 5.26710796 -2.7405951
v -0.42750001 5.26710796 -2.98257899
v 0.499931008 5.26710796 -2.98257899
v 0.960817993 5.67328978 -2.7405951
v -0.888387024 5.67328978 -2.7405951
v -0.888387024 5.67328978 -2.98257899
v 0.960817993 5.67328978 -2.98257899
vt 0.842884362 0 0
vt 0.906056941 0 0
vt 0.906056941 0.650543094 0
vt 0.842884362 0.650543094 0
vt 0.361866683 0.351967782 0
vt 0.605032206 0.351967782 0
vt 0.605032206 0.384711564 0
vt 0.361866683 0.384711564 0
vt 0.984614789 0.650543094 0
vt 0.921442211 0.650543094 0
vt 0.921442211 0 0
vt 0.984614789 0 0
vt 0.502746284 0.400096834 0
vt 0.565918863 0.400096834 0
vt 0.565918863 0.432840645 0
vt 0.502746284 0.432840645 0
vt 0.731650949 0 0
vt 0.76439476 0 0
vt 0.76439476 0.650543094 0
vt 0.731650949 0.650543094 0
vt 0.683521926 0 0
vt 0.716265678 0 0
vt 0.716265678 0.650543094 0
vt 0.683521926 0.650543094 0
vt 0.393027604 0.400096834 0
vt 0.456200123 0.400096834 0
vt 0.487361044 0.463201195 0
vt 0.361866683 0.463201195 0
vt 0.683521926 0.650543094 0
vt 0.716265678 0.650543094 0
vt 0.653161407 0.694363475 0
vt 0.620417535 0.694363475 0
vt 0 0.351967782 0
vt 0.125494346 0.351967782 0
vt 0.0943334401 0.415072113 0
vt 0.0311609078 0.415072113 0
vt 0.731650949 0.650543094 0
vt 0.76439476 0.650543094 0
vt 0.827499032 0.694363475 0
vt 0.79475534 0.694363475 0
vt 0.0623644404 0 0
vt 0.18785879 0 0
vt 0.250223219 0.0549620613 0
vt 0 0.0549620613 0
vt 0.565110743 0.448225915 0
vt 0.565110743 0.480969727 0
vt 0.502746344 0.480969727 0
vt 0.502746344 0.448225915 0
vt 0.515831709 0.0549620613 0
vt 0.26560849 0.0549620613 0
vt 0.327972949 0 0
vt 0.45346728 0 0
vt 0 0.463201195 0
vt 0 0.430457383 0
vt 0.0623644367 0.430457383 0
vt 0.0623644367 0.463201195 0
vt 0 0.0549620613 0
vt 0.250223219 0.0549620613 0
vt 0.246694371 0.336582482 0
vt 0.00352885225 0.336582482 0
vt 0.26560849 0.351967782 0
vt 0.298352301 0.351967782 0
vt 0.298352301 0.633588195 0
vt 0.26560849 0.633588195 0
vt 0.512302876 0.336582482 0
vt 0.269137353 0.336582482 0
vt 0.26560849 0.0549620613 0
vt 0.515831709 0.0549620613 0
vt 0.313737601 0.351967782 0
vt 0.346481413 0.351967782 0
vt 0.346481413 0.633588195 0
vt 0.313737601 0.633588195 0
vn 0 0 1
vn 0 0 1
vn 0 0.163484007 0.98654598
vn 0 0.163484007 0.98654598
vn 0 1 0
vn 0 1 0
vn 0 1 0
vn 0 1 0
vn 0 -0.163484007 -0.98654598
vn 0 -0.163484007 -0.98654598
vn 0 0 -1
vn 0 0 -1
vn 0 -1 0
vn 0 -1 0
vn 0 -1 0
vn 0 -1 0
vn 1 0 0
vn 1 0 0
vn 0.998268008 -0.0588329993 0
vn 0.999544024 -0.0301849991 0
vn -1 0 0
vn -1 0 0
vn -0.999544024 -0.0301849991 0
vn -0.998268008 -0.0588329993 0
vn 0 0.163484007 0.98654598
vn 0 0.163484007 0.98654598
vn 0 0.224368006 0.974505007
vn 0 0.224368006 0.974505007
vn -0.998268008 -0.0588329993 0
vn -0.999544024 -0.0301849991 0
vn -0.737483978 -0.675364971 0
vn -0.711053014 -0.703137994 0
vn 0 -0.224368006 -0.974503994
vn 0 -0.224368006 -0.974503994
vn 0 -0.163484007 -0.98654598
vn 0 -0.163484007 -0.98654598
vn 0.999544024 -0.0301849991 0
vn 0.998268008 -0.0588329993 0
vn 0.711053014 -0.703137994 0
vn 0.737483978 -0.675364971 0
vn 0 0.224368006 0.974505007
vn 0 0.224368006 0.974505007
vn 0 0 1
vn 0 0 1
vn -0.711053014 -0.703137994 0
vn -0.737483978 -0.675364971 0
vn -0.985063016 -0.172190994 0
vn -0.985063016 -0.172192007 0
vn 0 0 -1
vn 0 0 -1
vn 0 -0.224368006 -0.974503994
vn 0 -0.224368006 -0.974503994
vn 0.737483978 -0.675364971 0
vn 0.711053014 -0.703137994 0
vn 0.985063016 -0.172192007 0
vn 0.985063016 -0.172190994 0
vn 0 0 1
vn 0 0 1
vn 0 0 1
vn 0 0 1
vn -0.985063016 -0.172192007 0
vn -0.985063016 -0.172190994 0
vn -0.999921024 0.0125299999 0
vn -0.999921024 0.0125299999 0
vn 0 0 -1
vn 0 0 -1
vn 0 0 -1
vn 0 0 -1
vn 0.985063016 -0.172190994 0
vn 0.985063016 -0.172192007 0
vn 0.999921024 0.0125299999 0
vn 0.999921024 0.0125299999 0
g pCube1
f 1/1/1 2/2/2 9/3/3 10/4/4
f 3/5/5 4/6/6 6/7/7 5/8/8
f 11/9/9 12/10/10 8/11/11 7/12/12
f 7/13/13 8/14/14 2/15/15 1/16/16
f 2/17/17 8/18/18 12/19/19 9/20/20
f 7/21/21 1/22/22 10/23/23 11/24/24
f 10/25/25 9/26/26 13/27/27 14/28/28
f 11/29/29 10/30/30 14/31/31 15/32/32
f 15/33/33 16/34/34 12/35/35 11/36/36
f 9/37/37 12/38/38 16/39/39 13/40/40
f 14/41/41 13/42/42 17/43/43 18/44/44
f 15/45/45 14/46/46 18/47/47 19/48/48
f 19/49/49 20/50/50 16/51/51 15/52/52
f 13/53/53 16/54/54 20/55/55 17/56/56
f 18/57/57 17/58/58 4/59/59 3/60/60
f 19/61/61 18/62/62 3/63/63 5/64/64
f 5/65/65 6/66/66 20/67/67 19/68/68
f 17/69/69 20/70/70 6/71/71 4/72/72
