# File exported by Houdini 16.5.268 (www.sidefx.com)
# 30 points
# 112 vertices
# 28 primitives
# Bounds: [-0.922877014, 0.211875007, -3.55654693] to [0.998567998, 9.21350479, -3.22004199]
g 
v -0.232069999 0.211875007 -3.30213594
v 0.307761014 0.211875007 -3.30213594
v -0.633997023 8.91580486 -3.22004199
v 0.957310021 9.21350479 -3.22004199
v -0.633997023 8.91580486 -3.55654693
v 0.957310021 9.21350479 -3.55654693
v -0.232069999 0.211875007 -3.47445202
v 0.307761014 0.211875007 -3.47445202
v 0.307761014 6.11968803 -3.30213594
v -0.232069999 6.11968803 -3.30213594
v -0.232069999 6.11968803 -3.47445202
v 0.307761014 6.11968803 -3.47445202
v 0.998567998 6.25846004 -3.22004199
v -0.922877014 6.25846004 -3.22004199
v -0.922877014 6.25846004 -3.55654693
v 0.998567998 6.25846004 -3.55654693
v -0.0892879963 9.21350479 -3.22004199
v -0.0892879963 9.21350479 -3.55654693
v -0.0949930027 6.25846004 -3.55654693
v 0.000524999981 6.11968803 -3.47445202
v 0.000524999981 0.211875007 -3.47445202
v 0.000524999981 0.211875007 -3.30213594
v 0.000524999981 6.11968803 -3.30213594
v -0.0949930027 6.25846004 -3.22004199
v -0.895488977 8.22006512 -3.22004199
v -0.895488977 8.22006512 -3.55654693
v -0.0912059993 8.22006512 -3.55654693
v 0.971180022 8.22006512 -3.55654693
v 0.971180022 8.22006512 -3.22004199
v -0.0912059993 8.22006512 -3.22004199
vt 0.101541162 0 0
vt 0.140471429 0 0
vt 0.140471429 0.988812268 0
vt 0.101541162 0.988812268 0
vt 0.175631166 0 0
vt 0.235169172 0 0
vt 0.235169172 0.0367808044 0
vt 0.175631166 0.0367808044 0
vt 0.293435782 0.988812268 0
vt 0.254505515 0.988812268 0
vt 0.254505515 0 0
vt 0.293435782 0 0
vt 0 0 0
vt 0.0389302745 0 0
vt 0.0389302745 0.0288411714 0
vt 0 0.0288411714 0
vt 0.344652295 0 0
vt 0.373493463 0 0
vt 0.373493463 0.988812268 0
vt 0.344652295 0.988812268 0
vt 0.304623514 0 0
vt 0.333464682 0 0
vt 0.333464682 0.988812268 0
vt 0.304623514 0.988812268 0
vt 0.441171825 0.645738244 0
vt 0.466595024 0.645738244 0
vt 0.456154674 0.660906374 0
vt 0.365664959 0.660906374 0
vt 0.251138031 0.114734985 0
vt 0.251138031 0.133569553 0
vt 0.175631151 0.142542616 0
vt 0.175631151 0.105761811 0
vt 0.801802218 0.660906374 0
vt 0.711312532 0.660906374 0
vt 0.700872183 0.645738244 0
vt 0.726295352 0.645738244 0
vt 0.175631151 0.0806886256 0
vt 0.175631151 0.0618540645 0
vt 0.251138031 0.0528808944 0
vt 0.251138031 0.0896616951 0
vt 0.365664959 0.660906374 0
vt 0.456154674 0.660906374 0
vt 0.456568599 0.875314534 0
vt 0.368658543 0.875314534 0
vt 0.122750252 0 0
vt 0.159531057 0 0
vt 0.159531057 0.214408174 0
vt 0.122750252 0.214408174 0
vt 0.798808694 0.875314534 0
vt 0.710898638 0.875314534 0
vt 0.711312532 0.660906374 0
vt 0.801802218 0.660906374 0
vt 0.069869332 0 0
vt 0.106650136 0 0
vt 0.106650136 0.214408174 0
vt 0.069869332 0.214408174 0
vt 0.235169172 0 0
vt 0.34956485 0 0
vt 0.34956485 0.0367808044 0
vt 0.235169172 0.0367808044 0
vt 0.711312532 0.660906374 0
vt 0.710898638 0.875314534 0
vt 0.594777226 0.875314534 0
vt 0.591783643 0.660906374 0
vt 0.700872183 0.645738244 0
vt 0.711312532 0.660906374 0
vt 0.591783643 0.660906374 0
vt 0.667290509 0.645738244 0
vt 0.254505515 0 0
vt 0.254505515 0.988812268 0
vt 0.203082323 0.988812268 0
vt 0.203082323 0 0
vt 0.0389302745 0.0288411714 0
vt 0.0389302745 0 0
vt 0.0903534964 0 0
vt 0.0903534964 0.0288411714 0
vt 0.140471429 0.988812268 0
vt 0.140471429 0 0
vt 0.191894636 0 0
vt 0.191894636 0.988812268 0
vt 0.456154674 0.660906374 0
vt 0.466595024 0.645738244 0
vt 0.500176668 0.645738244 0
vt 0.575683534 0.660906374 0
vt 0.456568599 0.875314534 0
vt 0.456154674 0.660906374 0
vt 0.575683534 0.660906374 0
vt 0.57268995 0.875314534 0
vt 0.122750252 0.214408174 0
vt 0.159531057 0.214408174 0
vt 0.159531057 0.290454209 0
vt 0.122750252 0.290454209 0
vt 0.770226955 0.951360583 0
vt 0.710689008 0.983899891 0
vt 0.710898638 0.875314534 0
vt 0.798808694 0.875314534 0
vt 0.594777226 0.875314534 0
vt 0.710898638 0.875314534 0
vt 0.710689008 0.983899891 0
vt 0.596293271 0.983899891 0
vt 0.069869332 0.214408174 0
vt 0.106650136 0.214408174 0
vt 0.106650136 0.322993517 0
vt 0.069869332 0.322993517 0
vt 0.456778228 0.983899891 0
vt 0.456568599 0.875314534 0
vt 0.57268995 0.875314534 0
vt 0.571173966 0.983899891 0
vt 0.368658543 0.875314534 0
vt 0.456568599 0.875314534 0
vt 0.456778228 0.983899891 0
vt 0.397240251 0.951360583 0
vn 0 0 1
vn 0 0 1
vn 0 -0.0315669999 0.999502003
vn 0 -0.0538799986 0.998547018
vn -0.479579002 0.877497971 0
vn -0.183889002 0.982946992 0
vn -0.183889002 0.982946992 0
vn -0.479579002 0.877497971 0
vn 0 -0.0538799986 -0.998547018
vn -0 -0.0315669999 -0.999502003
vn 0 0 -1
vn 0 0 -1
vn 0 -1 0
vn 0 -1 0
vn 0 -1 0
vn 0 -1 0
vn 1 0 0
vn 1 0 0
vn 0.984480977 -0.175491005 0
vn 0.984480977 -0.175491005 0
vn -1 0 0
vn -1 0 0
vn -0.984480977 -0.175491005 0
vn -0.984480977 -0.175491005 0
vn 0 -0.0538799986 0.998547018
vn 0 -0.0315669999 0.999502003
vn -0 -0.0246680006 0.999696016
vn -0 -0.00343600009 0.99999398
vn -0.984480977 -0.175491005 0
vn -0.984480977 -0.175491005 0
vn -0.976158023 -0.217061996 0
vn -0.976158023 -0.217061996 0
vn -0 -0.00343600009 -0.99999398
vn 0 -0.0246680006 -0.999696016
vn -0 -0.0315669999 -0.999502003
vn 0 -0.0538799986 -0.998547018
vn 0.984480977 -0.175491005 0
vn 0.984480977 -0.175491005 0
vn 0.976158023 -0.217061996 0
vn 0.976158023 -0.217061996 0
vn -0 -0.00343600009 0.99999398
vn -0 -0.0246680006 0.999696016
vn 0 -0 1
vn -0 -0 1
vn -0.976158023 -0.217061996 0
vn -0.976158023 -0.217061996 0
vn -0.994143009 0.108073004 0
vn -0.994143009 0.108073004 0
vn -0 0 -1
vn 0 0 -1
vn 0 -0.0246680006 -0.999696016
vn -0 -0.00343600009 -0.99999398
vn 0.976158023 -0.217061996 0
vn 0.976158023 -0.217061996 0
vn 0.999903023 0.0139600001 0
vn 0.999903023 0.0139600001 0
vn -0.183889002 0.982946992 0
vn 0 1 0
vn 0 1 0
vn -0.183889002 0.982946992 0
vn 0 -0.0246680006 -0.999696016
vn 0 0 -1
vn 0 0 -1
vn 0 -0.00343600009 -0.99999398
vn -0 -0.0315669999 -0.999502003
vn 0 -0.0246680006 -0.999696016
vn 0 -0.00343600009 -0.99999398
vn -0 -0.0538799986 -0.998547018
vn 0 0 -1
vn -0 -0.0315669999 -0.999502003
vn -0 -0.0538799986 -0.998547018
vn 0 0 -1
vn 0 -1 0
vn 0 -1 0
vn 0 -1 0
vn 0 -1 0
vn 0 -0.0315669999 0.999502003
vn 0 0 1
vn 0 0 1
vn 0 -0.0538799986 0.998547018
vn -0 -0.0246680006 0.999696016
vn 0 -0.0315669999 0.999502003
vn 0 -0.0538799986 0.998547018
vn 0 -0.00343600009 0.99999398
vn 0 -0 1
vn -0 -0.0246680006 0.999696016
vn 0 -0.00343600009 0.99999398
vn 0 -0 1
vn -0.994143009 0.108073004 0
vn -0.994143009 0.108073004 0
vn -0.936067998 0.351819009 0
vn -0.936067998 0.351819009 0
vn -0 0 -1
vn 0 0 -1
vn 0 0 -1
vn -0 0 -1
vn 0 0 -1
vn 0 0 -1
vn 0 0 -1
vn 0 0 -1
vn 0.999903023 0.0139600001 0
vn 0.999903023 0.0139600001 0
vn 0.999903023 0.0139600001 0
vn 0.999903023 0.0139600001 0
vn 0 0 1
vn 0 -0 1
vn 0 -0 1
vn 0 0 1
vn -0 -0 1
vn 0 -0 1
vn 0 0 1
vn -0 0 1
g group1 pCube1
f 1/1/1 22/2/2 23/3/3 10/4/4
f 11/9/9 20/10/10 21/11/11 7/12/12
f 7/13/13 21/14/14 22/15/15 1/16/16
f 2/17/17 8/18/18 12/19/19 9/20/20
f 7/21/21 1/22/22 10/23/23 11/24/24
f 21/69/69 20/70/70 12/71/71 8/72/72
f 22/73/73 21/74/74 8/75/75 2/76/76
f 23/77/77 22/78/78 2/79/79 9/80/80
g pCube1
f 3/5/5 17/6/6 18/7/7 5/8/8
f 10/25/25 23/26/26 24/27/27 14/28/28
f 11/29/29 10/30/30 14/31/31 15/32/32
f 15/33/33 19/34/34 20/35/35 11/36/36
f 9/37/37 12/38/38 16/39/39 13/40/40
f 14/41/41 24/42/42 30/43/43 25/44/44
f 15/45/45 14/46/46 25/47/47 26/48/48
f 26/49/49 27/50/50 19/51/51 15/52/52
f 13/53/53 16/54/54 28/55/55 29/56/56
f 17/57/57 4/58/58 6/59/59 18/60/60
f 19/61/61 27/62/62 28/63/63 16/64/64
f 20/65/65 19/66/66 16/67/67 12/68/68
f 24/81/81 23/82/82 9/83/83 13/84/84
f 30/85/85 24/86/86 13/87/87 29/88/88
f 26/89/89 25/90/90 3/91/91 5/92/92
f 5/93/93 18/94/94 27/95/95 26/96/96
f 28/97/97 27/98/98 18/99/99 6/100/100
f 29/101/101 28/102/102 6/103/103 4/104/104
f 17/105/105 30/106/106 29/107/107 4/108/108
f 25/109/109 30/110/110 17/111/111 3/112/112
