# This file uses centimeters as units for non-parametric coordinates.

mtllib side_table.mtl
g default
v -0.600793 2.232514 1.808695
v -0.421888 2.232514 1.808695
v -0.021652 2.232514 1.808695
v 0.890912 2.232514 1.808695
v 1.293947 2.232514 1.808695
v 1.454244 2.232514 1.808695
v -0.600793 2.607079 1.808695
v -0.421888 2.607079 1.808695
v -0.021652 2.607079 1.808695
v 0.890912 2.607079 1.808695
v 1.293947 2.607079 1.808695
v 1.454244 2.607079 1.808695
v -0.600793 2.607079 1.598201
v -0.421888 2.607079 1.598201
v -0.021652 2.607079 1.598201
v 0.890912 2.607079 1.598201
v 1.293947 2.607079 1.598201
v 1.454244 2.607079 1.598201
v -0.600793 2.607079 1.192112
v -0.421888 2.607079 1.192112
v -0.021652 2.607079 1.192112
v 0.890912 2.607079 1.192112
v 1.293947 2.607079 1.192112
v 1.454244 2.607079 1.192112
v -0.600793 2.607079 0.419020
v -0.421888 2.607079 0.419020
v -0.021652 2.607079 0.419020
v 0.890912 2.607079 0.419020
v 1.293947 2.607079 0.419020
v 1.454244 2.607079 0.419020
v -0.600793 2.607079 -0.003632
v -0.421888 2.607079 -0.003632
v -0.021652 2.607079 -0.003632
v 0.890912 2.607079 -0.003632
v 1.293947 2.607079 -0.003632
v 1.454244 2.607079 -0.003632
v -0.600793 2.607079 -0.189201
v -0.421888 2.607079 -0.189201
v -0.021652 2.607079 -0.189201
v 0.890912 2.607079 -0.189201
v 1.293947 2.607079 -0.189201
v 1.454244 2.607079 -0.189201
v -0.600793 2.232514 -0.189201
v -0.421888 2.232514 -0.189201
v -0.021652 2.232514 -0.189201
v 0.890912 2.232514 -0.189201
v 1.293947 2.232514 -0.189201
v 1.454244 2.232514 -0.189201
v -0.600793 2.232514 -0.003632
v -0.421888 2.232514 -0.003632
v -0.021652 2.232514 -0.003632
v 0.890912 2.232514 -0.003632
v 1.293947 2.232514 -0.003632
v 1.454244 2.232514 -0.003632
v -0.600793 2.232514 0.419020
v -0.421888 2.232514 0.419020
v -0.021652 2.232514 0.419020
v 0.890912 2.232514 0.419020
v 1.293947 2.232514 0.419020
v 1.454244 2.232514 0.419020
v -0.600793 2.232514 1.192112
v -0.421888 2.232514 1.192112
v -0.021652 2.232514 1.192112
v 0.890912 2.232514 1.192112
v 1.293947 2.232514 1.192112
v 1.454244 2.232514 1.192112
v -0.600793 2.232514 1.598201
v -0.421888 2.232514 1.598201
v -0.021652 2.232514 1.598201
v 0.890912 2.232514 1.598201
v 1.293947 2.232514 1.598201
v 1.454244 2.232514 1.598201
v -0.421888 0.113376 -0.003632
v -0.021652 0.113376 -0.003632
v -0.021652 0.113376 0.419020
v -0.421888 0.113376 0.419020
v 0.890912 0.113376 -0.003632
v 1.293947 0.113376 -0.003632
v 1.293947 0.113376 0.419020
v 0.890912 0.113376 0.419020
v -0.421888 0.113376 1.192112
v -0.021652 0.113376 1.192112
v -0.021652 0.113376 1.598201
v -0.421888 0.113376 1.598201
v 0.890912 0.113376 1.192112
v 1.293947 0.113376 1.192112
v 1.293947 0.113376 1.598201
v 0.890912 0.113376 1.598201
vt 0.375000 0.000000
vt 0.425000 0.000000
vt 0.475000 0.000000
vt 0.525000 0.000000
vt 0.575000 0.000000
vt 0.625000 0.000000
vt 0.375000 0.250000
vt 0.425000 0.250000
vt 0.475000 0.250000
vt 0.525000 0.250000
vt 0.575000 0.250000
vt 0.625000 0.250000
vt 0.375000 0.300000
vt 0.425000 0.300000
vt 0.475000 0.300000
vt 0.525000 0.300000
vt 0.575000 0.300000
vt 0.625000 0.300000
vt 0.375000 0.350000
vt 0.425000 0.350000
vt 0.475000 0.350000
vt 0.525000 0.350000
vt 0.575000 0.350000
vt 0.625000 0.350000
vt 0.375000 0.400000
vt 0.425000 0.400000
vt 0.475000 0.400000
vt 0.525000 0.400000
vt 0.575000 0.400000
vt 0.625000 0.400000
vt 0.375000 0.450000
vt 0.425000 0.450000
vt 0.475000 0.450000
vt 0.525000 0.450000
vt 0.575000 0.450000
vt 0.625000 0.450000
vt 0.375000 0.500000
vt 0.425000 0.500000
vt 0.475000 0.500000
vt 0.525000 0.500000
vt 0.575000 0.500000
vt 0.625000 0.500000
vt 0.375000 0.750000
vt 0.425000 0.750000
vt 0.475000 0.750000
vt 0.525000 0.750000
vt 0.575000 0.750000
vt 0.625000 0.750000
vt 0.375000 0.800000
vt 0.425000 0.800000
vt 0.475000 0.800000
vt 0.525000 0.800000
vt 0.575000 0.800000
vt 0.625000 0.800000
vt 0.375000 0.850000
vt 0.425000 0.850000
vt 0.475000 0.850000
vt 0.525000 0.850000
vt 0.575000 0.850000
vt 0.625000 0.850000
vt 0.375000 0.900000
vt 0.425000 0.900000
vt 0.475000 0.900000
vt 0.525000 0.900000
vt 0.575000 0.900000
vt 0.625000 0.900000
vt 0.375000 0.950000
vt 0.425000 0.950000
vt 0.475000 0.950000
vt 0.525000 0.950000
vt 0.575000 0.950000
vt 0.625000 0.950000
vt 0.375000 1.000000
vt 0.425000 1.000000
vt 0.475000 1.000000
vt 0.525000 1.000000
vt 0.575000 1.000000
vt 0.625000 1.000000
vt 0.875000 0.000000
vt 0.825000 0.000000
vt 0.775000 0.000000
vt 0.725000 0.000000
vt 0.675000 0.000000
vt 0.875000 0.250000
vt 0.825000 0.250000
vt 0.775000 0.250000
vt 0.725000 0.250000
vt 0.675000 0.250000
vt 0.125000 0.000000
vt 0.175000 0.000000
vt 0.225000 0.000000
vt 0.275000 0.000000
vt 0.325000 0.000000
vt 0.125000 0.250000
vt 0.175000 0.250000
vt 0.225000 0.250000
vt 0.275000 0.250000
vt 0.325000 0.250000
vt 0.425000 0.800000
vt 0.475000 0.800000
vt 0.475000 0.850000
vt 0.425000 0.850000
vt 0.525000 0.800000
vt 0.575000 0.800000
vt 0.575000 0.850000
vt 0.525000 0.850000
vt 0.425000 0.900000
vt 0.475000 0.900000
vt 0.475000 0.950000
vt 0.425000 0.950000
vt 0.525000 0.900000
vt 0.575000 0.900000
vt 0.575000 0.950000
vt 0.525000 0.950000
vn 0.000000 0.000000 1.000000
vn 0.000000 0.000000 1.000000
vn 0.000000 0.000000 1.000000
vn 0.000000 0.000000 1.000000
vn 0.000000 0.000000 1.000000
vn 0.000000 0.000000 1.000000
vn 0.000000 0.000000 1.000000
vn 0.000000 0.000000 1.000000
vn 0.000000 0.000000 1.000000
vn 0.000000 0.000000 1.000000
vn 0.000000 0.000000 1.000000
vn 0.000000 0.000000 1.000000
vn 0.000000 1.000000 0.000000
vn 0.000000 1.000000 0.000000
vn 0.000000 1.000000 0.000000
vn 0.000000 1.000000 0.000000
vn 0.000000 1.000000 0.000000
vn 0.000000 1.000000 0.000000
vn 0.000000 1.000000 0.000000
vn 0.000000 1.000000 0.000000
vn 0.000000 1.000000 0.000000
vn 0.000000 1.000000 0.000000
vn 0.000000 1.000000 0.000000
vn 0.000000 1.000000 0.000000
vn 0.000000 1.000000 0.000000
vn 0.000000 1.000000 0.000000
vn 0.000000 1.000000 0.000000
vn 0.000000 1.000000 0.000000
vn 0.000000 1.000000 0.000000
vn 0.000000 1.000000 0.000000
vn 0.000000 1.000000 0.000000
vn 0.000000 1.000000 0.000000
vn 0.000000 1.000000 0.000000
vn 0.000000 1.000000 0.000000
vn 0.000000 1.000000 0.000000
vn 0.000000 1.000000 0.000000
vn 0.000000 1.000000 0.000000
vn 0.000000 1.000000 0.000000
vn 0.000000 1.000000 0.000000
vn 0.000000 1.000000 0.000000
vn 0.000000 1.000000 0.000000
vn 0.000000 1.000000 0.000000
vn 0.000000 1.000000 0.000000
vn 0.000000 1.000000 0.000000
vn 0.000000 1.000000 0.000000
vn 0.000000 1.000000 0.000000
vn 0.000000 1.000000 0.000000
vn 0.000000 1.000000 0.000000
vn 0.000000 0.000000 -1.000000
vn 0.000000 0.000000 -1.000000
vn 0.000000 0.000000 -1.000000
vn 0.000000 0.000000 -1.000000
vn 0.000000 0.000000 -1.000000
vn 0.000000 0.000000 -1.000000
vn 0.000000 0.000000 -1.000000
vn 0.000000 0.000000 -1.000000
vn 0.000000 0.000000 -1.000000
vn 0.000000 0.000000 -1.000000
vn 0.000000 0.000000 -1.000000
vn 0.000000 0.000000 -1.000000
vn 0.000000 -1.000000 0.000000
vn 0.000000 -1.000000 0.000000
vn 0.000000 -1.000000 0.000000
vn 0.000000 -1.000000 0.000000
vn 0.000000 -1.000000 0.000000
vn 0.000000 -1.000000 0.000000
vn 0.000000 -1.000000 0.000000
vn 0.000000 -1.000000 0.000000
vn 0.000000 -1.000000 0.000000
vn 0.000000 -1.000000 0.000000
vn 0.000000 -1.000000 0.000000
vn 0.000000 -1.000000 0.000000
vn 0.000000 -1.000000 0.000000
vn 0.000000 -1.000000 0.000000
vn 0.000000 -1.000000 0.000000
vn 0.000000 -1.000000 0.000000
vn 0.000000 -1.000000 0.000000
vn 0.000000 -1.000000 0.000000
vn 0.000000 -1.000000 0.000000
vn 0.000000 -1.000000 0.000000
vn 0.000000 -1.000000 0.000000
vn 0.000000 -1.000000 0.000000
vn 0.000000 -1.000000 0.000000
vn 0.000000 -1.000000 0.000000
vn 0.000000 -1.000000 0.000000
vn 0.000000 -1.000000 0.000000
vn 0.000000 -1.000000 0.000000
vn 0.000000 -1.000000 0.000000
vn 0.000000 -1.000000 0.000000
vn 0.000000 -1.000000 0.000000
vn 0.000000 -1.000000 0.000000
vn 0.000000 -1.000000 0.000000
vn 0.000000 -1.000000 0.000000
vn 0.000000 -1.000000 0.000000
vn 0.000000 -1.000000 0.000000
vn 0.000000 -1.000000 0.000000
vn 0.000000 -1.000000 0.000000
vn 0.000000 -1.000000 0.000000
vn 0.000000 -1.000000 0.000000
vn 0.000000 -1.000000 0.000000
vn 0.000000 -1.000000 0.000000
vn 0.000000 -1.000000 0.000000
vn 0.000000 -1.000000 0.000000
vn 0.000000 -1.000000 0.000000
vn 0.000000 -1.000000 0.000000
vn 0.000000 -1.000000 0.000000
vn 0.000000 -1.000000 0.000000
vn 0.000000 -1.000000 0.000000
vn 0.000000 -1.000000 0.000000
vn 0.000000 -1.000000 0.000000
vn 0.000000 -1.000000 0.000000
vn 0.000000 -1.000000 0.000000
vn 1.000000 0.000000 0.000000
vn 1.000000 0.000000 0.000000
vn 1.000000 0.000000 0.000000
vn 1.000000 0.000000 0.000000
vn 1.000000 0.000000 0.000000
vn 1.000000 0.000000 0.000000
vn 1.000000 0.000000 0.000000
vn 1.000000 0.000000 0.000000
vn 1.000000 0.000000 0.000000
vn 1.000000 0.000000 0.000000
vn 1.000000 0.000000 0.000000
vn 1.000000 0.000000 0.000000
vn -1.000000 0.000000 0.000000
vn -1.000000 0.000000 0.000000
vn -1.000000 0.000000 0.000000
vn -1.000000 0.000000 0.000000
vn -1.000000 0.000000 0.000000
vn -1.000000 0.000000 0.000000
vn -1.000000 0.000000 0.000000
vn -1.000000 0.000000 0.000000
vn -1.000000 0.000000 0.000000
vn -1.000000 0.000000 0.000000
vn -1.000000 0.000000 0.000000
vn -1.000000 0.000000 0.000000
vn 0.000000 0.000000 -1.000000
vn 0.000000 0.000000 -1.000000
vn 0.000000 0.000000 -1.000000
vn 0.000000 0.000000 -1.000000
vn 1.000000 0.000000 0.000000
vn 1.000000 0.000000 0.000000
vn 1.000000 0.000000 0.000000
vn 1.000000 0.000000 0.000000
vn 0.000000 0.000000 1.000000
vn 0.000000 0.000000 1.000000
vn 0.000000 0.000000 1.000000
vn 0.000000 0.000000 1.000000
vn -1.000000 0.000000 0.000000
vn -1.000000 0.000000 0.000000
vn -1.000000 0.000000 0.000000
vn -1.000000 0.000000 0.000000
vn 0.000000 0.000000 -1.000000
vn 0.000000 0.000000 -1.000000
vn 0.000000 0.000000 -1.000000
vn 0.000000 0.000000 -1.000000
vn 1.000000 0.000000 0.000000
vn 1.000000 0.000000 0.000000
vn 1.000000 0.000000 0.000000
vn 1.000000 0.000000 0.000000
vn 0.000000 0.000000 1.000000
vn 0.000000 0.000000 1.000000
vn 0.000000 0.000000 1.000000
vn 0.000000 0.000000 1.000000
vn -1.000000 0.000000 0.000000
vn -1.000000 0.000000 0.000000
vn -1.000000 0.000000 0.000000
vn -1.000000 0.000000 0.000000
vn 0.000000 0.000000 -1.000000
vn 0.000000 0.000000 -1.000000
vn 0.000000 0.000000 -1.000000
vn 0.000000 0.000000 -1.000000
vn 1.000000 0.000000 0.000000
vn 1.000000 0.000000 0.000000
vn 1.000000 0.000000 0.000000
vn 1.000000 0.000000 0.000000
vn 0.000000 0.000000 1.000000
vn 0.000000 0.000000 1.000000
vn 0.000000 0.000000 1.000000
vn 0.000000 0.000000 1.000000
vn -1.000000 0.000000 0.000000
vn -1.000000 0.000000 0.000000
vn -1.000000 0.000000 0.000000
vn -1.000000 0.000000 0.000000
vn 0.000000 0.000000 -1.000000
vn 0.000000 0.000000 -1.000000
vn 0.000000 0.000000 -1.000000
vn 0.000000 0.000000 -1.000000
vn 1.000000 0.000000 0.000000
vn 1.000000 0.000000 0.000000
vn 1.000000 0.000000 0.000000
vn 1.000000 0.000000 0.000000
vn 0.000000 0.000000 1.000000
vn 0.000000 0.000000 1.000000
vn 0.000000 0.000000 1.000000
vn 0.000000 0.000000 1.000000
vn -1.000000 0.000000 0.000000
vn -1.000000 0.000000 0.000000
vn -1.000000 0.000000 0.000000
vn -1.000000 0.000000 0.000000
s 1
g pCube1
usemtl initialShadingGroup
f 1/1/1 2/2/2 8/8/3 7/7/4
f 2/2/2 3/3/5 9/9/6 8/8/3
f 3/3/5 4/4/7 10/10/8 9/9/6
f 4/4/7 5/5/9 11/11/10 10/10/8
f 5/5/9 6/6/11 12/12/12 11/11/10
s 2
f 7/7/13 8/8/14 14/14/15 13/13/16
f 8/8/14 9/9/17 15/15/18 14/14/15
f 9/9/17 10/10/19 16/16/20 15/15/18
f 10/10/19 11/11/21 17/17/22 16/16/20
f 11/11/21 12/12/23 18/18/24 17/17/22
f 13/13/16 14/14/15 20/20/25 19/19/26
f 14/14/15 15/15/18 21/21/27 20/20/25
f 15/15/18 16/16/20 22/22/28 21/21/27
f 16/16/20 17/17/22 23/23/29 22/22/28
f 17/17/22 18/18/24 24/24/30 23/23/29
f 19/19/26 20/20/25 26/26/31 25/25/32
f 20/20/25 21/21/27 27/27/33 26/26/31
f 21/21/27 22/22/28 28/28/34 27/27/33
f 22/22/28 23/23/29 29/29/35 28/28/34
f 23/23/29 24/24/30 30/30/36 29/29/35
f 25/25/32 26/26/31 32/32/37 31/31/38
f 26/26/31 27/27/33 33/33/39 32/32/37
f 27/27/33 28/28/34 34/34/40 33/33/39
f 28/28/34 29/29/35 35/35/41 34/34/40
f 29/29/35 30/30/36 36/36/42 35/35/41
f 31/31/38 32/32/37 38/38/43 37/37/44
f 32/32/37 33/33/39 39/39/45 38/38/43
f 33/33/39 34/34/40 40/40/46 39/39/45
f 34/34/40 35/35/41 41/41/47 40/40/46
f 35/35/41 36/36/42 42/42/48 41/41/47
s 3
f 37/37/49 38/38/50 44/44/51 43/43/52
f 38/38/50 39/39/53 45/45/54 44/44/51
f 39/39/53 40/40/55 46/46/56 45/45/54
f 40/40/55 41/41/57 47/47/58 46/46/56
f 41/41/57 42/42/59 48/48/60 47/47/58
s 4
f 43/43/61 44/44/62 50/50/63 49/49/64
f 44/44/62 45/45/65 51/51/66 50/50/63
f 45/45/65 46/46/67 52/52/68 51/51/66
f 46/46/67 47/47/69 53/53/70 52/52/68
f 47/47/69 48/48/71 54/54/72 53/53/70
f 49/49/64 50/50/63 56/56/73 55/55/74
s off
f 73/99/75 74/100/76 75/101/77 76/102/78
s 4
f 51/51/66 52/52/68 58/58/79 57/57/80
s off
f 77/103/81 78/104/82 79/105/83 80/106/84
s 4
f 53/53/70 54/54/72 60/60/85 59/59/86
f 55/55/74 56/56/73 62/62/87 61/61/88
f 56/56/73 57/57/80 63/63/89 62/62/87
f 57/57/80 58/58/79 64/64/90 63/63/89
f 58/58/79 59/59/86 65/65/91 64/64/90
f 59/59/86 60/60/85 66/66/92 65/65/91
f 61/61/88 62/62/87 68/68/93 67/67/94
s off
f 81/107/95 82/108/96 83/109/97 84/110/98
s 4
f 63/63/89 64/64/90 70/70/99 69/69/100
s off
f 85/111/101 86/112/102 87/113/103 88/114/104
s 4
f 65/65/91 66/66/92 72/72/105 71/71/106
f 67/67/94 68/68/93 2/74/107 1/73/108
f 68/68/93 69/69/100 3/75/109 2/74/107
f 69/69/100 70/70/99 4/76/110 3/75/109
f 70/70/99 71/71/106 5/77/111 4/76/110
f 71/71/106 72/72/105 6/78/112 5/77/111
s 5
f 54/80/113 48/79/114 42/84/115 36/85/116
f 60/81/117 54/80/113 36/85/116 30/86/118
f 66/82/119 60/81/117 30/86/118 24/87/120
f 72/83/121 66/82/119 24/87/120 18/88/122
f 6/6/123 72/83/121 18/88/122 12/12/124
s 6
f 43/89/125 49/90/126 31/95/127 37/94/128
f 49/90/126 55/91/129 25/96/130 31/95/127
f 55/91/129 61/92/131 19/97/132 25/96/130
f 61/92/131 67/93/133 13/98/134 19/97/132
f 67/93/133 1/1/135 7/7/136 13/98/134
s off
f 50/50/137 51/51/138 74/100/139 73/99/140
f 51/51/141 57/57/142 75/101/143 74/100/144
f 57/57/145 56/56/146 76/102/147 75/101/148
f 56/56/149 50/50/150 73/99/151 76/102/152
f 52/52/153 53/53/154 78/104/155 77/103/156
f 53/53/157 59/59/158 79/105/159 78/104/160
f 59/59/161 58/58/162 80/106/163 79/105/164
f 58/58/165 52/52/166 77/103/167 80/106/168
f 62/62/169 63/63/170 82/108/171 81/107/172
f 63/63/173 69/69/174 83/109/175 82/108/176
f 69/69/177 68/68/178 84/110/179 83/109/180
f 68/68/181 62/62/182 81/107/183 84/110/184
f 64/64/185 65/65/186 86/112/187 85/111/188
f 65/65/189 71/71/190 87/113/191 86/112/192
f 71/71/193 70/70/194 88/114/195 87/113/196
f 70/70/197 64/64/198 85/111/199 88/114/200
